/* XPM */
static char *_e0f81ad30c4487deb61eeda308649d3V0Jg7XGExC3Qc1hh[] = {
/* columns rows colors chars-per-pixel */
"31 31 48 1 ",
"  c #47704C",
". c #002F00",
"X c #001E00",
"o c #497706",
"O c #508807",
"+ c #649009",
"@ c #2F6204",
"# c #5BB108",
"$ c #AAD20F",
"% c #078E00",
"& c None",
"* c #008C00",
"= c #002B00",
"- c #A1CE0E",
"; c #608D08",
": c #59B108",
"> c #367E05",
", c #003000",
"< c #265503",
"1 c #002300",
"2 c #4B7807",
"3 c #215103",
"4 c #4C7807",
"5 c #4B7707",
"6 c #95C90D",
"7 c #497706",
"8 c #497706",
"9 c #008C00",
"0 c #AAD20F",
"q c #57B007",
"w c #38A405",
"e c #75BC0A",
"r c #4BAB06",
"t c #ADD40F",
"y c #008B00",
"u c #5BB208",
"i c #98CB0D",
"p c #89C50C",
"a c #0C9101",
"s c #034E00",
"d c #2B6F03",
"f c #1A9802",
"g c #1D5902",
"h c #005D00",
"j c #0C9001",
"k c #299E03",
"l c #537F07",
"z c #69B909",
/* pixels */
"                               ",
"                               ",
"                               ",
"                               ",
"                               ",
"     =...................=     ",
"     .@OO;+++OOOOOOOOOOO@.     ",
"     .>ukzttirrfffffkwwr>.     ",
"     .+0kut0iqpjyyyyarqp+.     ",
"     .+0&ut0iqpa9999arqp+.     ",
"     .+0&ut0iqpa9999arqp+.     ",
"     .+0&ut0iqpa9999arqp+.     ",
"     .+0&ut0iqpa9999arqp+.     ",
"     .;0kq00iqpjyyyyjrqp;.     ",
"     ,<@sg@@@ggssssssgg@<,     ",
"      13lddlldddhhhhddl31      ",
"      X2trwtteeu9999wui2X      ",
"      Xo0rw0teeqy999wuioX      ",
"      Xo0rw0teeqy999wuioX      ",
"      Xo0rw0teeqy999wuioX      ",
"      Xo0rw0teeqy999wuioX      ",
"      Xo0rw0teeqy999wuioX      ",
"      Xo0rw0teeqy999wuioX      ",
"      Xo0rw0teeqy999wuioX      ",
"      X8$rw$$ee:****&:65X      ",
"      =7-##--###%%%%%#-4=      ",
"                               ",
"                               ",
"                               ",
"                               ",
"                               "
};
